<?xml version="1.0" encoding="utf-8"?>
<!-- Svg Vector Icons : http://www.onlinewebfonts.com/icon -->
<!DOCTYPE svg PUBLIC "-//W3C//DTD SVG 1.1//EN" "http://www.w3.org/Graphics/SVG/1.1/DTD/svg11.dtd">
<svg version="1.1" xmlns="http://www.w3.org/2000/svg" xmlns:xlink="http://www.w3.org/1999/xlink" x="0px" y="0px" viewBox="0 0 256 256" enable-background="new 0 0 256 256" xml:space="preserve">
<metadata> Svg Vector Icons : http://www.onlinewebfonts.com/icon </metadata>
<g><g><path fill="#000000" d="M234.7,116.4H50.1l61.3-61.3c4.4-4.4,4.4-11.6,0-16l-0.7-0.7c-4.4-4.4-11.6-4.4-16,0l-80.4,80.4c-2.6,2.1-4.3,5.3-4.3,8.8v1.1c0,4.3,2.4,8,5.9,9.9l78.8,78.8c4.4,4.4,11.6,4.4,16,0l0.7-0.7c4.4-4.4,4.4-11.6,0-16l-60.7-60.7h184.1c6.2,0,11.3-5.1,11.3-11.3v-1.1C246,121.5,241,116.4,234.7,116.4z"/></g></g>
</svg>