<svg width="42" height="34" viewBox="0 0 42 34" fill="none" xmlns="http://www.w3.org/2000/svg"><path d="M42 8.49241C42 6.49014 40.3329 4.86699 38.2765 4.86699H29.9359C24.4521 4.86699 20.0066 9.19541 20.0066 14.5348V31.8401C20.0066 32.5075 20.5687 33.0638 21.2481 32.9753C25.1291 32.4696 23.7034 29.5177 30.4324 29.5177C32.304 29.5177 36.1107 29.5177 38.2777 29.5177C40.3341 29.5177 42 27.8946 42 25.8923V8.49241Z" fill="#CD7900"/><path d="M0 8.49241C0 6.49015 1.66706 4.86699 3.72348 4.86699H12.0641C17.5479 4.86699 21.9934 9.19541 21.9934 14.5348V31.8401C21.9934 32.5075 21.4313 33.0594 20.749 32.9949C15.97 32.5427 18.3992 29.3905 11.5676 29.3905C9.69604 29.3905 5.88932 29.3905 3.72233 29.3905C1.66591 29.3905 0 27.7674 0 25.7651V8.49241Z" fill="#CD7900"/><path d="M36.8864 3.90056C36.8864 2.29875 35.5528 1.00023 33.9076 1.00023H27.95C23.563 1.00023 20.0066 4.46296 20.0066 8.73446V26.1365C20.0066 26.6704 20.4592 27.1221 20.9949 27.0082C23.3482 26.5078 23.1356 24.2029 28.4465 24.2029C29.9719 24.2029 32.1482 24.2029 33.9087 24.2029C35.5539 24.2029 36.8864 22.9044 36.8864 21.3026V3.90056Z" fill="#FFF1C0"/><path d="M5.11316 3.90056C5.11316 2.29875 6.44681 1.00023 8.09194 1.00023H14.0495C18.4366 1.00023 21.9929 4.46296 21.9929 8.73446V26.1365C21.9929 26.6704 21.5445 27.1184 21.0036 27.0307C18.236 26.5817 18.9484 24.2029 13.5531 24.2029C12.0277 24.2029 9.85141 24.2029 8.09083 24.2029C6.44569 24.2029 5.11316 22.9044 5.11316 21.3026V3.90056Z" fill="#FFF1C0"/><path opacity="0.4" fill-rule="evenodd" clip-rule="evenodd" d="M19.5113 3.11903C20.0999 3.66193 20.6032 4.29162 20.9996 4.98705C21.3965 4.2907 21.9005 3.66027 22.4901 3.11687V26.2959C22.2659 26.4645 22.0336 26.6186 21.769 26.7459C21.5866 26.9584 21.3099 27.0806 21.0034 27.0309C20.9797 27.0271 20.9564 27.0231 20.9332 27.019C20.7277 27.0466 20.5368 26.9915 20.3824 26.8822C20.0419 26.7708 19.7625 26.6235 19.5113 26.4552V3.11903Z" fill="#E6A000"/></svg>